<svg xmlns="http://www.w3.org/2000/svg" viewBox="0 0 1200 900" role="img" aria-labelledby="title desc">
  <title id="title">Pack Debug</title>
  <desc id="desc">Imagen de producto WineNotFound para Pack Debug.</desc>
  
  <defs>
    <linearGradient id="pack-debug-bg" x1="0" x2="1" y1="0" y2="1">
      <stop offset="0" stop-color="#fffaf2"/>
      <stop offset="0.52" stop-color="#f0dfc2"/>
      <stop offset="1" stop-color="#c39a52"/>
    </linearGradient>
    <linearGradient id="pack-debug-glass" x1="0" x2="1">
      <stop offset="0" stop-color="#ffffff" stop-opacity="0.32"/>
      <stop offset="0.2" stop-color="#2b1018"/>
      <stop offset="1" stop-color="#0f0a09"/>
    </linearGradient>
    <filter id="pack-debug-shadow" x="-20%" y="-20%" width="140%" height="150%">
      <feDropShadow dx="0" dy="24" stdDeviation="22" flood-color="#171514" flood-opacity="0.22"/>
    </filter>
  </defs>
  <rect width="1200" height="900" fill="url(#pack-debug-bg)"/>
  <path d="M0 656 C162 598 286 712 462 646 C660 570 816 548 1200 634 L1200 900 L0 900 Z" fill="#2b1018" opacity="0.12"/>
  <rect x="178" y="636" width="846" height="88" rx="44" fill="#171514" opacity="0.15"/>
  <g filter="url(#pack-debug-shadow)">
    
    <rect x="390" y="214" width="126" height="400" rx="40" fill="#641c2f"/>
    <rect x="426" y="132" width="54" height="116" rx="16" fill="#641c2f"/>
    <rect x="610" y="238" width="126" height="376" rx="40" fill="#151416"/>
    <rect x="646" y="158" width="54" height="112" rx="16" fill="#151416"/>
    <rect x="754" y="362" width="168" height="216" rx="18" fill="#fffaf2"/>
    <path d="M780 422 H896 M780 474 H874 M780 526 H900" stroke="#566b52" stroke-width="14" stroke-linecap="round"/>
    <rect x="516" y="466" width="152" height="86" rx="9" fill="#fffaf2"/>
    <text x="592" y="518" text-anchor="middle" font-family="Georgia, serif" font-size="34" font-weight="700" fill="#2b1018">404</text>
  </g>
  <text x="76" y="112" font-family="Inter, Segoe UI, sans-serif" font-size="32" font-weight="800" fill="#566b52" letter-spacing="4">WINE NOT FOUND</text>
  <text x="76" y="778" font-family="Georgia, serif" font-size="72" font-weight="700" fill="#2b1018">Pack Debug</text>
  <text x="80" y="832" font-family="Inter, Segoe UI, sans-serif" font-size="28" font-weight="700" fill="#641c2f">Dos botellas y ficha de cata</text>
</svg>
