<svg xmlns="http://www.w3.org/2000/svg" viewBox="0 0 1200 900" role="img" aria-labelledby="title desc">
  <title id="title">Missing Bottle</title>
  <desc id="desc">Imagen de producto WineNotFound para Missing Bottle.</desc>
  
  <defs>
    <linearGradient id="suscripcion-missing-bottle-bg" x1="0" x2="1" y1="0" y2="1">
      <stop offset="0" stop-color="#fffaf2"/>
      <stop offset="0.52" stop-color="#f0dfc2"/>
      <stop offset="1" stop-color="#566b52"/>
    </linearGradient>
    <linearGradient id="suscripcion-missing-bottle-glass" x1="0" x2="1">
      <stop offset="0" stop-color="#ffffff" stop-opacity="0.32"/>
      <stop offset="0.2" stop-color="#2b1018"/>
      <stop offset="1" stop-color="#0f0a09"/>
    </linearGradient>
    <filter id="suscripcion-missing-bottle-shadow" x="-20%" y="-20%" width="140%" height="150%">
      <feDropShadow dx="0" dy="24" stdDeviation="22" flood-color="#171514" flood-opacity="0.22"/>
    </filter>
  </defs>
  <rect width="1200" height="900" fill="url(#suscripcion-missing-bottle-bg)"/>
  <path d="M0 656 C162 598 286 712 462 646 C660 570 816 548 1200 634 L1200 900 L0 900 Z" fill="#2b1018" opacity="0.12"/>
  <rect x="178" y="636" width="846" height="88" rx="44" fill="#171514" opacity="0.15"/>
  <g filter="url(#suscripcion-missing-bottle-shadow)">
    
    <rect x="348" y="278" width="510" height="270" rx="26" fill="#c39a52"/>
    <path d="M348 310 L604 206 L858 310 L604 402 Z" fill="#d8b675"/>
    <path d="M604 402 L858 310 L858 548 L604 664 Z" fill="#b66a45"/>
    <path d="M348 310 L604 402 L604 664 L348 548 Z" fill="#c39a52"/>
    <rect x="520" y="218" width="78" height="230" rx="22" fill="#641c2f"/>
    <rect x="632" y="222" width="78" height="234" rx="22" fill="#151416"/>
    <rect x="516" y="466" width="152" height="86" rx="9" fill="#fffaf2"/>
    <text x="592" y="518" text-anchor="middle" font-family="Georgia, serif" font-size="34" font-weight="700" fill="#2b1018">CLUB</text>
  </g>
  <text x="76" y="112" font-family="Inter, Segoe UI, sans-serif" font-size="32" font-weight="800" fill="#566b52" letter-spacing="4">WINE NOT FOUND</text>
  <text x="76" y="778" font-family="Georgia, serif" font-size="72" font-weight="700" fill="#2b1018">Missing Bottle</text>
  <text x="80" y="832" font-family="Inter, Segoe UI, sans-serif" font-size="28" font-weight="700" fill="#641c2f">Caja mensual privada</text>
</svg>
