<svg xmlns="http://www.w3.org/2000/svg" viewBox="0 0 1200 900" role="img" aria-labelledby="title desc">
  <title id="title">Vertical Null</title>
  <desc id="desc">Imagen de producto WineNotFound para Vertical Null.</desc>
  
  <defs>
    <linearGradient id="vertical-null-bg" x1="0" x2="1" y1="0" y2="1">
      <stop offset="0" stop-color="#fffaf2"/>
      <stop offset="0.52" stop-color="#f0dfc2"/>
      <stop offset="1" stop-color="#641c2f"/>
    </linearGradient>
    <linearGradient id="vertical-null-glass" x1="0" x2="1">
      <stop offset="0" stop-color="#ffffff" stop-opacity="0.32"/>
      <stop offset="0.2" stop-color="#2b1018"/>
      <stop offset="1" stop-color="#0f0a09"/>
    </linearGradient>
    <filter id="vertical-null-shadow" x="-20%" y="-20%" width="140%" height="150%">
      <feDropShadow dx="0" dy="24" stdDeviation="22" flood-color="#171514" flood-opacity="0.22"/>
    </filter>
  </defs>
  <rect width="1200" height="900" fill="url(#vertical-null-bg)"/>
  <path d="M0 656 C162 598 286 712 462 646 C660 570 816 548 1200 634 L1200 900 L0 900 Z" fill="#2b1018" opacity="0.12"/>
  <rect x="178" y="636" width="846" height="88" rx="44" fill="#171514" opacity="0.15"/>
  <g filter="url(#vertical-null-shadow)">
    
    <rect x="372" y="206" width="118" height="390" rx="38" fill="#151416"/>
    <rect x="405" y="128" width="52" height="110" rx="16" fill="#151416"/>
    <rect x="542" y="176" width="128" height="420" rx="40" fill="#3f1322"/>
    <rect x="580" y="94" width="52" height="118" rx="16" fill="#3f1322"/>
    <rect x="724" y="226" width="112" height="370" rx="36" fill="#641c2f"/>
    <rect x="754" y="154" width="52" height="102" rx="16" fill="#641c2f"/>
    <rect x="516" y="466" width="152" height="86" rx="9" fill="#fffaf2"/>
    <text x="592" y="518" text-anchor="middle" font-family="Georgia, serif" font-size="34" font-weight="700" fill="#2b1018">NULL</text>
  </g>
  <text x="76" y="112" font-family="Inter, Segoe UI, sans-serif" font-size="32" font-weight="800" fill="#566b52" letter-spacing="4">WINE NOT FOUND</text>
  <text x="76" y="778" font-family="Georgia, serif" font-size="72" font-weight="700" fill="#2b1018">Vertical Null</text>
  <text x="80" y="832" font-family="Inter, Segoe UI, sans-serif" font-size="28" font-weight="700" fill="#641c2f">Tres anadas de reserva</text>
</svg>
