<svg xmlns="http://www.w3.org/2000/svg" viewBox="0 0 1200 900" role="img" aria-labelledby="title desc">
  <title id="title">404 Crianza</title>
  <desc id="desc">Imagen de producto WineNotFound para 404 Crianza.</desc>
  
  <defs>
    <linearGradient id="wine-404-crianza-bg" x1="0" x2="1" y1="0" y2="1">
      <stop offset="0" stop-color="#fffaf2"/>
      <stop offset="0.52" stop-color="#f0dfc2"/>
      <stop offset="1" stop-color="#c39a52"/>
    </linearGradient>
    <linearGradient id="wine-404-crianza-glass" x1="0" x2="1">
      <stop offset="0" stop-color="#ffffff" stop-opacity="0.32"/>
      <stop offset="0.2" stop-color="#2b1018"/>
      <stop offset="1" stop-color="#0f0a09"/>
    </linearGradient>
    <filter id="wine-404-crianza-shadow" x="-20%" y="-20%" width="140%" height="150%">
      <feDropShadow dx="0" dy="24" stdDeviation="22" flood-color="#171514" flood-opacity="0.22"/>
    </filter>
  </defs>
  <rect width="1200" height="900" fill="url(#wine-404-crianza-bg)"/>
  <path d="M0 682 C210 610 286 738 482 666 C682 592 794 548 1200 638 L1200 900 L0 900 Z" fill="#2b1018" opacity="0.13"/>
  <rect x="118" y="650" width="964" height="80" rx="40" fill="#171514" opacity="0.16"/>
  <g filter="url(#wine-404-crianza-shadow)">
    <rect x="510" y="160" width="180" height="560" rx="52" fill="#641c2f"/>
    <rect x="552" y="82" width="96" height="128" rx="24" fill="#641c2f"/>
    <rect x="544" y="68" width="112" height="30" rx="15" fill="#171514"/>
    <path d="M526 168 C570 152 646 154 684 178 L684 694 C620 716 564 716 526 694 Z" fill="url(#wine-404-crianza-glass)" opacity="0.62"/>
    <rect x="536" y="402" width="128" height="150" rx="10" fill="#fffaf2"/>
    <rect x="552" y="421" width="96" height="8" fill="#c39a52"/>
    <text x="600" y="486" text-anchor="middle" font-family="Georgia, serif" font-size="40" font-weight="700" fill="#2b1018">404</text>
    <rect x="552" y="516" width="96" height="7" fill="#566b52" opacity="0.78"/>
  </g>
  <text x="76" y="112" font-family="Inter, Segoe UI, sans-serif" font-size="32" font-weight="800" fill="#566b52" letter-spacing="4">WINE NOT FOUND</text>
  <text x="76" y="778" font-family="Georgia, serif" font-size="72" font-weight="700" fill="#2b1018">404 Crianza</text>
  <text x="80" y="832" font-family="Inter, Segoe UI, sans-serif" font-size="28" font-weight="700" fill="#641c2f">Tinto 2023</text>
</svg>
