<?xml version="1.0" standalone="no"?>
<!DOCTYPE svg PUBLIC "-//W3C//DTD SVG 20010904//EN"
 "http://www.w3.org/TR/2001/REC-SVG-20010904/DTD/svg10.dtd">
<svg version="1.0" xmlns="http://www.w3.org/2000/svg"
 width="1028.000000pt" height="745.000000pt" viewBox="0 0 1028.000000 745.000000"
 preserveAspectRatio="xMidYMid meet">

<g transform="translate(0.000000,745.000000) scale(0.100000,-0.100000)"
fill="#000000" stroke="none">
<path d="M1307 7008 c-223 -557 -1022 -2707 -1187 -3194 l-38 -112 32 -5 c18
-3 107 -6 197 -7 90 0 211 -3 269 -5 58 -2 472 -7 920 -11 448 -3 818 -8 821
-10 3 -2 112 -4 242 -5 l237 -1 -2 -1406 -3 -1405 -85 -18 c-104 -21 -958
-218 -1278 -293 -127 -30 -241 -60 -252 -66 -24 -13 -26 -43 -3 -61 21 -18
1239 -24 2631 -14 l962 7 0 33 c0 42 12 38 -330 109 -146 30 -362 75 -480 100
-118 25 -370 77 -560 117 -190 39 -346 72 -347 73 -8 7 -14 1533 -13 3659 l0
2527 -120 0 -120 0 0 -665 c0 -366 -1 -665 -2 -665 -2 0 -32 10 -68 21 -52 17
-99 22 -236 26 -322 10 -420 -15 -854 -212 -288 -130 -450 -179 -639 -192
l-83 -6 7 24 c6 21 67 180 382 1004 36 94 107 280 159 413 52 134 94 246 94
248 0 2 -56 4 -124 4 -90 0 -125 -3 -129 -12z"/>
<path d="M7284 6995 c-2 -5 -5 -1394 -7 -3085 l-2 -3074 -225 -48 c-214 -45
-478 -100 -1174 -243 -184 -37 -314 -69 -323 -78 -11 -10 -13 -24 -8 -46 l7
-31 1796 2 1797 3 0 40 0 40 -195 46 c-107 26 -415 97 -685 159 -269 61 -547
125 -618 142 l-127 30 2 1401 3 1402 35 1 c84 3 897 14 1350 19 681 7 1324 16
1328 19 5 6 -565 1576 -766 2106 -155 411 -454 1192 -458 1199 -4 5 -237 1
-243 -4 -2 -3 10 -44 29 -93 67 -179 581 -1518 591 -1541 5 -13 7 -26 4 -29
-15 -15 -186 11 -358 54 -112 28 -195 60 -352 134 -189 90 -277 127 -375 158
-165 52 -200 57 -425 57 -174 0 -220 -3 -270 -18 -33 -10 -68 -20 -77 -23 -17
-5 -18 31 -18 650 l0 655 -116 3 c-72 2 -118 -1 -120 -7z"/>
<path d="M4954 5080 c-75 -15 -222 -69 -315 -115 -527 -262 -898 -879 -1005
-1675 -20 -149 -22 -504 -4 -655 105 -894 573 -1595 1190 -1785 212 -65 493
-66 695 -3 583 183 1050 836 1177 1646 20 124 22 180 22 447 0 266 -3 324 -22
451 -27 173 -78 383 -128 517 -86 236 -259 533 -411 705 -217 247 -513 422
-783 463 -101 15 -348 17 -416 4z m471 -250 c330 -84 636 -376 839 -800 78
-163 113 -263 159 -446 60 -238 71 -355 64 -694 -6 -307 -13 -380 -61 -575
-62 -253 -174 -514 -306 -709 -85 -127 -230 -282 -339 -364 -289 -218 -631
-268 -959 -142 -457 176 -831 743 -937 1420 -22 137 -32 586 -16 727 39 365
171 751 346 1013 227 339 530 561 805 589 119 12 319 3 405 -19z"/>
<path d="M5027 4524 l-98 -195 43 -48 c60 -67 83 -134 83 -246 0 -122 -18
-157 -103 -205 -35 -19 -87 -56 -116 -82 l-53 -47 -64 31 c-51 25 -81 32 -147
36 -160 9 -278 -35 -387 -143 -206 -204 -206 -505 0 -724 l68 -72 -11 -63
c-40 -214 33 -418 192 -535 60 -44 148 -91 171 -91 14 0 15 -8 9 -57 -14 -105
-8 -224 14 -281 40 -103 149 -214 245 -248 139 -49 309 -15 419 84 95 85 138
193 138 344 l0 88 38 0 c125 1 273 62 361 151 88 88 128 177 146 324 6 49 7
51 68 84 89 49 178 145 227 244 38 76 41 89 45 184 8 202 -23 290 -140 409
-49 48 -92 81 -140 105 l-70 34 -164 0 -164 0 -33 49 c-47 69 -90 113 -157
157 -32 21 -63 39 -69 41 -8 3 -6 32 8 99 25 123 25 326 0 419 -26 95 -70 181
-123 241 -44 48 -117 109 -132 109 -3 0 -50 -88 -104 -196z"/>
</g>
</svg>
