<svg xmlns="http://www.w3.org/2000/svg"><symbol id="accessible_table" viewBox="0 0 36 36"><g id="accessible_table"><path d="M24.068 19.068c1.265.058 1.856.592 2.422 1.65l3.375 6.325a2.3 2.3 0 0 1 .174 1.764 2.32 2.32 0 0 1-2.217 1.647c-.858 0-1.642-.47-2.046-1.225l-3.055-5.709-6.97.47c-1.485.102-2.751-.87-3.002-2.304l-.336-1.929-.755-.035a2.134 2.134 0 0 1-1.752-.939c-.344-.505-.425-1.13-.25-1.906l1.033-4.584c.364-1.615 1.441-2.886 2.931-2.983 1.423-.095 2.512.633 3.134 2.088.543 1.27.958 2.802 1.244 4.248l1.374.118c1.21.104 2.094 1.006 2.094 2.146 0 .356-.09.71-.26 1.027l2.862.13zm-10.113 2.407c.143.82.845 1.35 1.714 1.293l7.365-.496h.04c.226 0 .433.123.54.322l3.242 6.058a1.094 1.094 0 1 0 1.93-1.033l-3.374-6.325c-.39-.728-.682-.97-1.4-1.004l-10.347-.476.29 1.661zm1.673-9.596c-.415-.973-1.037-1.405-1.928-1.348-.889.058-1.567.92-1.817 2.03l-1.033 4.585c-.1.44-.075.739.068.949a.922.922 0 0 0 .763.404h.005l7.536.346c.251.011.567-.093.727-.246a.962.962 0 0 0 .294-.69c0-.506-.43-.879-.977-.926l-5.496-.471a.613.613 0 0 1-.54-.759l.426-1.704a.61.61 0 1 1 1.187.297l-.252 1.008 2.134.183c-.281-1.313-.648-2.608-1.097-3.658zM14.483 8.973a3.043 3.043 0 0 1-3.036-3.02 3.04 3.04 0 0 1 3.02-3.053 3.047 3.047 0 0 1 3.053 3.018 3.041 3.041 0 0 1-3.02 3.055h-.017zm-1.812-3.027c.006.994.82 1.803 1.812 1.803h.01c1-.006 1.809-.824 1.803-1.824a1.817 1.817 0 0 0-1.813-1.8 1.817 1.817 0 0 0-1.812 1.821z" id="Combined-Shape"/><path d="M23.35 26.395a.613.613 0 0 1 .352.791C22.34 30.724 18.88 33.1 15.09 33.1 10 33.1 5.86 28.96 5.86 23.871c0-2.112.733-4.177 2.064-5.815a.611.611 0 1 1 .95.771 8.02 8.02 0 0 0-1.79 5.044c0 4.414 3.59 8.005 8.005 8.005a8.056 8.056 0 0 0 7.47-5.13.612.612 0 0 1 .792-.35z" id="Path"/></g></symbol><symbol id="address" viewBox="0 0 36 36"><g id="sprites"><g transform="translate(7 3)" id="address"><path d="M11 30.522l-.597-.69C9.98 29.343.059 17.802.059 10.891.06 4.919 4.967.059 11 .059s10.94 4.86 10.94 10.833c0 6.911-9.92 18.452-10.343 18.94l-.597.69zm0-28.905c-5.166 0-9.367 4.16-9.367 9.275 0 5.423 7.215 14.597 9.367 17.212 2.15-2.615 9.367-11.792 9.367-17.212 0-5.114-4.201-9.275-9.367-9.275z" id="Fill-55"/><path d="M11 15.022c-2.3 0-4.172-1.853-4.172-4.13S8.7 6.762 11 6.762c2.3 0 4.172 1.853 4.172 4.13S13.3 15.022 11 15.022zm0-6.702c-1.432 0-2.598 1.153-2.598 2.572 0 1.418 1.166 2.572 2.598 2.572s2.598-1.154 2.598-2.572c0-1.419-1.166-2.572-2.598-2.572z" id="Fill-56"/></g></g></symbol><symbol id="allergies" viewBox="0 0 36 36"><g id="allergies"><path d="M22.951 20.264c-.136-.017-.27-.023-.405-.03.73-.96 1.052-2.207.887-3.512a.556.556 0 0 0-.482-.482c-.136-.017-.27-.023-.406-.03.73-.959 1.053-2.208.888-3.513a.556.556 0 0 0-.482-.482 4.972 4.972 0 0 0-2.544.335c.042-.243.07-.489.07-.738 0-1.411-.691-2.758-1.898-3.695a.556.556 0 0 0-.682 0c-1.207.936-1.9 2.283-1.9 3.695 0 .25.03.495.072.739a4.97 4.97 0 0 0-2.544-.336.556.556 0 0 0-.483.482c-.164 1.305.159 2.554.888 3.514-.134.007-.27.012-.406.03a.556.556 0 0 0-.482.481c-.164 1.305.158 2.552.888 3.512-.135.007-.27.013-.406.03a.556.556 0 0 0-.482.482c-.19 1.516.272 2.958 1.27 3.956.847.847 2.014 1.313 3.286 1.313l.084-.002v1.456a.556.556 0 0 0 1.112 0v-1.456l.083.002c1.273 0 2.44-.466 3.285-1.313.999-.998 1.462-2.44 1.271-3.956a.556.556 0 0 0-.482-.482zm-1.575-.372c-.654.655-1.572.995-2.581.986-.019-1.002.33-1.925.986-2.582.655-.654 1.583-1.003 2.581-.985.02 1.002-.33 1.924-.986 2.58zm-3.696.986c-1.008.007-1.927-.332-2.581-.986-.656-.657-1.005-1.58-.986-2.581 1.003-.018 1.927.331 2.581.985.656.657 1.005 1.58.986 2.582zm3.696-5.01c-.654.654-1.567 1.003-2.581.986-.019-1.002.33-1.925.986-2.582.655-.654 1.573-1.011 2.581-.986.02 1.002-.33 1.925-.986 2.582zM18.238 9.29c.721.695 1.128 1.594 1.128 2.522 0 .929-.407 1.828-1.128 2.523-.722-.695-1.128-1.594-1.128-2.523 0-.928.406-1.827 1.128-2.522zm-1.544 4.981c.657.657 1.005 1.58.986 2.582-1.002.008-1.927-.332-2.581-.986-.657-.657-1.005-1.58-.986-2.582 1.01-.028 1.927.332 2.581.986zM15.1 23.916c-.657-.657-1.005-1.58-.986-2.581 1.006-.023 1.927.332 2.581.986.657.656 1.005 1.58.986 2.582-1.008.005-1.927-.333-2.581-.987zm6.277 0c-.654.654-1.572.995-2.581.987-.019-1.003.33-1.926.986-2.582.655-.655 1.573-1.01 2.581-.986.02 1.001-.33 1.924-.986 2.58z" id="Shape"/><path d="M18 33c8.284 0 15-6.716 15-15 0-8.284-6.716-15-15-15C9.716 3 3 9.716 3 18c0 8.284 6.716 15 15 15zm0-1.25c-7.594 0-13.75-6.156-13.75-13.75S10.406 4.25 18 4.25 31.75 10.406 31.75 18 25.594 31.75 18 31.75z" id="Oval"/><rect id="Rectangle" transform="rotate(135 9.828 25.578)" x="6.828" y="24.828" width="6" height="1.5" rx=".75"/><rect id="Rectangle-Copy" transform="rotate(135 25.652 9.652)" x="22.652" y="8.902" width="6" height="1.5" rx=".75"/></g></symbol><symbol id="by-restoo" viewBox="0 0 133 11"><g id="sprites"><g id="by-restoo"><path d="M85 9.726V1h3.86c.401 0 .771.086 1.111.252.34.169.633.39.879.664.246.275.439.587.577.935.14.348.209.698.209 1.051 0 .566-.141 1.08-.425 1.543a2.444 2.444 0 0 1-1.148 1.003l2.052 3.279h-1.916L88.366 6.8h-1.671v2.927H85v-.001zm1.697-4.412h2.125a.907.907 0 0 0 .438-.11c.136-.074.251-.174.349-.301.099-.127.175-.277.233-.449.059-.171.086-.355.086-.553 0-.204-.033-.394-.098-.565a1.479 1.479 0 0 0-.265-.447 1.144 1.144 0 0 0-.381-.296.986.986 0 0 0-.436-.104h-2.052v2.825h.001zM100.059 8.24v1.486H94V1h5.948v1.488h-4.251v2.101h3.674v1.376h-3.674V8.24h4.362zM106.836 3.349a1.984 1.984 0 0 0-.313-.232 4.51 4.51 0 0 0-1.26-.529 3.104 3.104 0 0 0-.773-.099c-.468 0-.816.086-1.046.259-.228.171-.344.414-.344.724 0 .182.044.33.129.449.086.119.211.224.375.314.165.09.371.172.622.245.25.073.539.151.866.233.426.115.812.238 1.162.368.348.131.643.296.884.492.242.197.428.432.56.707.131.274.196.612.196 1.013 0 .467-.088.866-.264 1.199-.175.332-.411.6-.707.805-.294.204-.64.354-1.033.448a5.26 5.26 0 0 1-1.228.141 6.544 6.544 0 0 1-1.942-.294 6.029 6.029 0 0 1-1.72-.836l.75-1.463c.073.074.207.17.4.289a5.505 5.505 0 0 0 1.554.658c.32.081.647.122.983.122.934 0 1.402-.298 1.402-.897a.752.752 0 0 0-.16-.49 1.37 1.37 0 0 0-.455-.345 4.265 4.265 0 0 0-.713-.27 31.157 31.157 0 0 0-.933-.26 7.78 7.78 0 0 1-1.088-.374 2.999 2.999 0 0 1-.769-.474 1.739 1.739 0 0 1-.46-.639 2.247 2.247 0 0 1-.153-.872c0-.442.082-.836.247-1.18a2.33 2.33 0 0 1 .679-.859 3.115 3.115 0 0 1 1.014-.523A4.223 4.223 0 0 1 104.54 1a4.89 4.89 0 0 1 1.697.288c.515.193.965.421 1.351.684l-.752 1.377zM115.263 2.488h-2.777v7.238h-1.696V2.488H108V1h7.264v1.488zM123.18 2.918a4.396 4.396 0 0 0-.824 2.49c.001.03.005.062.005.093a2.864 2.864 0 0 1-2.861 2.86 2.863 2.863 0 0 1-2.86-2.86 2.863 2.863 0 0 1 2.86-2.861c.86 0 1.63.383 2.155.985a5.51 5.51 0 0 1 .821-1.496A4.474 4.474 0 0 0 119.5 1a4.505 4.505 0 0 0-4.5 4.5c0 2.48 2.018 4.5 4.5 4.5a4.505 4.505 0 0 0 4.491-4.5 2.867 2.867 0 0 1 5.083-1.809c.404.494.646 1.124.646 1.81 0 .793-.324 1.511-.847 2.03a2.851 2.851 0 0 1-4.183-.171 5.507 5.507 0 0 1-.818 1.499A4.472 4.472 0 0 0 126.86 10c2.482 0 4.5-2.019 4.5-4.499 0-2.481-2.018-4.5-4.5-4.5-1.521 0-2.866.76-3.68 1.917zM1 9.874V1h3.675c.384 0 .736.08 1.057.243.32.162.598.375.831.638a2.934 2.934 0 0 1 .738 1.907c0 .366-.061.718-.181 1.056a2.777 2.777 0 0 1-.519.895 2.627 2.627 0 0 1-.806.624 2.27 2.27 0 0 1-1.043.238H1.863v3.274H1v-.001zm.863-4.05H4.7c.259 0 .494-.057.707-.169.213-.112.394-.262.544-.45.15-.188.267-.404.35-.65.083-.245.125-.501.125-.768 0-.275-.048-.536-.144-.781a2.13 2.13 0 0 0-.388-.645 1.778 1.778 0 0 0-.575-.431 1.61 1.61 0 0 0-.694-.157H1.863v4.051zM12.163 9.999a3.746 3.746 0 0 1-1.694-.381A4.206 4.206 0 0 1 9.15 8.605a4.58 4.58 0 0 1-.85-1.443C8.1 6.62 8 6.066 8 5.5c0-.593.106-1.159.319-1.7A4.678 4.678 0 0 1 9.2 2.362a4.26 4.26 0 0 1 1.325-.993A3.739 3.739 0 0 1 12.175 1c.617 0 1.182.131 1.694.394.513.263.95.606 1.312 1.031.363.426.644.907.844 1.444a4.68 4.68 0 0 1-.019 3.344 4.635 4.635 0 0 1-.875 1.431 4.236 4.236 0 0 1-1.319.988 3.747 3.747 0 0 1-1.649.367zM8.875 5.5c0 .482.08.947.238 1.394.158.445.383.841.675 1.187a3.29 3.29 0 0 0 1.038.825c.4.205.846.307 1.338.307.5 0 .954-.108 1.362-.325.408-.216.754-.5 1.038-.85a4.08 4.08 0 0 0 .643-3.933 3.85 3.85 0 0 0-.681-1.182 3.37 3.37 0 0 0-1.038-.818 2.875 2.875 0 0 0-1.325-.306c-.5 0-.955.105-1.363.318a3.265 3.265 0 0 0-1.038.843 4.08 4.08 0 0 0-.887 2.54zM21.287 1.061h.838l1.25 3.15 1.262-3.15h.825l-1.55 3.787 1.7 4.014L28.825 1h.95l-3.75 8.874h-.775l-1.862-4.387-1.875 4.387h-.776L17 1h.925l3.225 7.862 1.688-4.014zM36.963 9.1v.774H31V1h5.85v.773h-4.987v3.201h4.35v.737h-4.35v3.388h5.1zM39 9.874V1h3.738c.383 0 .737.08 1.062.243.325.162.604.375.838.638a2.93 2.93 0 0 1 .737 1.907c0 .324-.048.636-.144.931a2.81 2.81 0 0 1-.406.801 2.487 2.487 0 0 1-.625.599 2.175 2.175 0 0 1-.812.332l2.188 3.425h-.988l-2.1-3.274h-2.625v3.274H39v-.002zm.863-4.05h2.913c.258 0 .494-.057.706-.169.212-.112.394-.264.543-.456.15-.191.267-.408.351-.65.083-.241.125-.495.125-.762s-.048-.523-.143-.77a2.132 2.132 0 0 0-.388-.644 1.855 1.855 0 0 0-.575-.438 1.575 1.575 0 0 0-.694-.163h-2.837v4.052h-.001zM52.963 9.1v.774H47V1h5.85v.773h-4.987v3.201h4.35v.737h-4.35v3.388h5.1zM55 9.874V1h3c.708 0 1.329.115 1.863.35.533.232.977.549 1.331.949.354.4.619.868.794 1.407.175.537.263 1.11.263 1.718 0 .676-.1 1.286-.3 1.832a4.005 4.005 0 0 1-.85 1.399 3.74 3.74 0 0 1-1.337.9c-.525.213-1.112.318-1.763.318H55v.001zm6.376-4.45a4.58 4.58 0 0 0-.225-1.468 3.32 3.32 0 0 0-.656-1.157 2.965 2.965 0 0 0-1.057-.756c-.417-.179-.896-.27-1.438-.27h-2.137v7.326H58c.55 0 1.036-.094 1.457-.281a2.96 2.96 0 0 0 1.056-.775c.283-.329.498-.717.644-1.162a4.69 4.69 0 0 0 .219-1.457zM73.663 7.586c0 .333-.067.64-.2.918-.134.28-.313.522-.538.726a2.449 2.449 0 0 1-.787.476c-.3.112-.621.168-.963.168H67V1h4.262c.308 0 .587.065.838.199.25.133.462.306.637.519.175.213.311.455.406.726.095.271.144.543.144.818 0 .45-.113.861-.337 1.231a2.093 2.093 0 0 1-.938.831c.508.15.91.429 1.206.837.297.408.445.883.445 1.425zm-5.8-5.826v3.275h3.05c.217 0 .419-.046.606-.139a1.597 1.597 0 0 0 .806-.881c.075-.195.112-.401.112-.618 0-.225-.035-.438-.105-.638a1.487 1.487 0 0 0-.763-.87 1.313 1.313 0 0 0-.581-.131h-3.125v.002zm4.925 5.676a1.82 1.82 0 0 0-.113-.632 1.662 1.662 0 0 0-.318-.537 1.669 1.669 0 0 0-.488-.376 1.314 1.314 0 0 0-.606-.144h-3.4v3.362h3.312c.225 0 .438-.045.638-.137.2-.092.371-.215.512-.369.142-.154.254-.333.338-.538.083-.202.125-.413.125-.629zM74.949 1l2.913 4.774L80.787 1h.95l-3.45 5.574v3.3h-.863V6.549L74 1h.949z" id="Shape"/></g></g></symbol><symbol id="cancel" viewBox="0 0 36 36"><g id="sprites"><g transform="translate(3 3)" id="cancel"><path d="M15 29.938C6.763 29.938.062 23.237.062 15 .062 6.763 6.763.062 15 .062 23.237.062 29.938 6.763 29.938 15c0 8.237-6.701 14.938-14.938 14.938zm0-28.235C7.668 1.703 1.703 7.668 1.703 15c0 7.332 5.965 13.297 13.297 13.297 7.332 0 13.297-5.965 13.297-13.297 0-7.332-5.965-13.297-13.297-13.297z" id="Fill-52"/><path d="M8.52 22.64l-1.159-1.162L21.48 7.361l1.16 1.16L8.52 22.64" id="Fill-53"/><path d="M21.48 22.64L7.36 8.521l1.16-1.161 14.118 14.117-1.16 1.161" id="Fill-54"/></g></g></symbol><symbol id="carte" viewBox="0 0 36 36"><g id="carte"><path d="M28.75 28.936V5.112l-11.656.764L25 6.428V29.33l3.75-.394zM8.01 5.861l.008.131h.732V5.72h-.731l-.01.14zm-.76.83V5.019l23-1.508v26.777l-6.75.708V7.827L7.25 6.692z" id="Shape"/><path d="M8.75 6.797v23.795l14.75 1.037V7.827L8.75 6.797zM25 33.238L7.25 31.99V5.188L25 6.428v26.81z" id="Shape"/></g></symbol><symbol id="check" viewBox="0 0 36 36"><g id="sprites"><g transform="translate(3 3)" id="check"><path d="M15 29.938C6.763 29.938.062 23.237.062 15 .062 6.763 6.763.062 15 .062 23.237.062 29.938 6.763 29.938 15c0 8.237-6.701 14.938-14.938 14.938zm0-28.235C7.668 1.703 1.703 7.668 1.703 15c0 7.332 5.965 13.297 13.297 13.297 7.332 0 13.297-5.965 13.297-13.297 0-7.332-5.965-13.297-13.297-13.297z" id="Fill-43"/><path d="M13.216 21.455l-7.62-7.64 1.161-1.16 6.462 6.478L23.244 9.107l1.16 1.16-11.188 11.188" id="Fill-44"/></g></g></symbol><symbol id="childrens" viewBox="0 0 36 36"><g id="childrens"><path d="M25.432 9.587a2.34 2.34 0 0 1 1.666-.687 2.34 2.34 0 0 1 1.666.687c.44.44.666.903.75 1.58.093.741-.094 1.234-.612 1.752l-4.858 4.858v12.101a2.63 2.63 0 0 1-.79 1.873c-.519.518-1.146.79-1.873.79a2.63 2.63 0 0 1-1.873-.79c-.518-.518-.79-1.146-.79-1.873v-5.013H17.39v5.013a2.63 2.63 0 0 1-.79 1.873c-.52.518-1.147.79-1.874.79a2.63 2.63 0 0 1-1.872-.79c-.518-.518-.79-1.146-.79-1.873V17.777l-4.858-4.858a2.34 2.34 0 0 1-.688-1.666c0-.631.245-1.223.714-1.691.48-.432 1.025-.662 1.64-.662.63 0 1.223.244 1.599.628l5.064 3.913c.952.44 1.785.654 2.493.654.706 0 1.516-.213 2.429-.65l4.975-3.858zm2.693 1.753c-.046-.368-.13-.543-.35-.763a.94.94 0 0 0-.677-.277c-.26 0-.496.097-.742.335l-5.099 3.96-.122.077c-1.118.545-2.153.823-3.107.823-.952 0-2.003-.276-3.157-.819l-.13-.08-5.193-4.019a.94.94 0 0 0-.676-.277c-.252 0-.469.092-.676.277a.94.94 0 0 0-.278.676c0 .26.098.496.278.676l5.267 5.268v12.681c0 .347.12.622.38.883.251.25.557.38.883.38.347 0 .622-.119.883-.38.25-.25.38-.556.38-.883v-6.413h4.129v6.413c0 .347.119.622.38.883.25.25.556.38.883.38.347 0 .621-.119.883-.38.25-.25.38-.556.38-.883V17.197l5.268-5.268c.224-.224.25-.294.213-.589z" id="Path"/><path d="M21.278 4.642a4.47 4.47 0 0 1 1.342 3.25 4.47 4.47 0 0 1-1.342 3.25 4.47 4.47 0 0 1-3.25 1.342 4.47 4.47 0 0 1-3.25-1.342 4.47 4.47 0 0 1-1.342-3.25 4.47 4.47 0 0 1 1.342-3.25 4.47 4.47 0 0 1 3.25-1.342 4.47 4.47 0 0 1 3.25 1.342zm-.99.99c-.623-.623-1.373-.932-2.26-.932-.887 0-1.637.309-2.26.932-.623.622-.932 1.373-.932 2.26 0 .887.309 1.637.932 2.26.623.623 1.373.932 2.26.932.887 0 1.637-.309 2.26-.932.623-.623.932-1.373.932-2.26 0-.887-.309-1.638-.932-2.26z" id="Path"/></g></symbol><symbol id="date-o" viewBox="0 0 36 36"><g id="sprites"><g transform="translate(5 4)" id="date-o"><path d="M23.4 26H2.6A2.603 2.603 0 0 1 0 23.4V4.333c0-1.433.972-2.6 2.167-2.6h1.3v1.734h-1.3c-.15 0-.434.338-.434.866V23.4c0 .478.39.867.867.867h20.8c.478 0 .867-.39.867-.867V4.333c0-.528-.285-.866-.434-.866h-1.3V1.733h1.3C25.028 1.733 26 2.9 26 4.333V23.4c0 1.433-1.167 2.6-2.6 2.6" id="Fill-133"/><path d="M6.067 5.2a.867.867 0 0 1-.867-.867V.867a.867.867 0 0 1 1.733 0v3.466a.867.867 0 0 1-.866.867" id="Fill-134"/><path d="M19.933 5.2a.867.867 0 0 1-.866-.867V.867a.867.867 0 0 1 1.733 0v3.466a.867.867 0 0 1-.867.867" id="Fill-135"/><path d="M8.667 1.733h8.666v1.734H8.667V1.733z" id="Fill-136"/><path d="M1.733 6.933h22.534v1.734H1.733V6.933z" id="Fill-137"/></g></g></symbol><symbol id="date" viewBox="0 0 36 36"><g id="sprites"><g transform="translate(5 4)" id="date"><path d="M23.4 26H2.6A2.603 2.603 0 0 1 0 23.4V4.333c0-1.433.972-2.6 2.167-2.6h1.3v1.734h-1.3c-.15 0-.434.338-.434.866V23.4c0 .478.39.867.867.867h20.8c.478 0 .867-.39.867-.867V4.333c0-.528-.285-.866-.434-.866h-1.3V1.733h1.3C25.028 1.733 26 2.9 26 4.333V23.4c0 1.433-1.167 2.6-2.6 2.6" id="Fill-133"/><path d="M6.067 5.2a.867.867 0 0 1-.867-.867V.867a.867.867 0 0 1 1.733 0v3.466a.867.867 0 0 1-.866.867" id="Fill-134"/><path d="M19.933 5.2a.867.867 0 0 1-.866-.867V.867a.867.867 0 0 1 1.733 0v3.466a.867.867 0 0 1-.867.867" id="Fill-135"/><path d="M8.667 1.733h8.666v1.734H8.667V1.733z" id="Fill-136"/><path d="M1.733 6.933h22.534v1.734H1.733V6.933z" id="Fill-137"/><path d="M20.8 10.4h1.733v1.733H20.8V10.4z" id="Fill-138"/><path d="M17.333 10.4h1.734v1.733h-1.734V10.4z" id="Fill-139"/><path d="M13.867 10.4H15.6v1.733h-1.733V10.4z" id="Fill-140"/><path d="M10.4 10.4h1.733v1.733H10.4V10.4z" id="Fill-141"/><path d="M6.933 10.4h1.734v1.733H6.933V10.4z" id="Fill-142"/><path d="M20.8 13.867h1.733V15.6H20.8v-1.733z" id="Fill-143"/><path d="M17.333 13.867h1.734V15.6h-1.734v-1.733z" id="Fill-144"/><path d="M13.867 13.867H15.6V15.6h-1.733v-1.733z" id="Fill-145"/><path d="M10.4 13.867h1.733V15.6H10.4v-1.733z" id="Fill-146"/><path d="M6.933 13.867h1.734V15.6H6.933v-1.733z" id="Fill-147"/><path d="M3.467 13.867H5.2V15.6H3.467v-1.733z" id="Fill-148"/><path d="M20.8 17.333h1.733v1.734H20.8v-1.734z" id="Fill-149"/><path d="M17.333 17.333h1.734v1.734h-1.734v-1.734z" id="Fill-150"/><path d="M13.867 17.333H15.6v1.734h-1.733v-1.734z" id="Fill-151"/><path d="M10.4 17.333h1.733v1.734H10.4v-1.734z" id="Fill-152"/><path d="M6.933 17.333h1.734v1.734H6.933v-1.734z" id="Fill-153"/><path d="M3.467 17.333H5.2v1.734H3.467v-1.734z" id="Fill-154"/><path d="M17.333 20.8h1.734v1.733h-1.734V20.8z" id="Fill-155"/><path d="M13.867 20.8H15.6v1.733h-1.733V20.8z" id="Fill-156"/><path d="M10.4 20.8h1.733v1.733H10.4V20.8z" id="Fill-157"/><path d="M6.933 20.8h1.734v1.733H6.933V20.8z" id="Fill-158"/><path d="M3.467 20.8H5.2v1.733H3.467V20.8z" id="Fill-159"/></g></g></symbol><symbol id="edit" viewBox="0 0 36 36"><g id="edit"><path d="M31 13.176v12.653C31 28.689 28.689 31 25.858 31H10.142A5.154 5.154 0 0 1 5 25.858V10.142A5.154 5.154 0 0 1 10.142 5h12.682c.607 0 1.127.491 1.127 1.127a1.11 1.11 0 0 1-1.127 1.126H10.142a2.91 2.91 0 0 0-2.918 2.918v15.687a2.91 2.91 0 0 0 2.918 2.918H25.83a2.91 2.91 0 0 0 2.918-2.918V13.176c0-.607.49-1.127 1.126-1.127.636 0 1.127.52 1.127 1.127zm-17.657 9.49c.244.243.518.334.823.334.305 0 .61-.122.823-.335L30.657 7.017a1.193 1.193 0 0 0 0-1.675 1.197 1.197 0 0 0-1.676 0L13.343 20.991c-.457.487-.457 1.217 0 1.674z" id="Shape"/></g></symbol><symbol id="email" viewBox="0 0 36 36"><g id="sprites"><g id="email"><g id="Group" transform="translate(4 7)"><path d="M27.735 3.327L26.65 2.242 16.373 12.52a3.36 3.36 0 0 1-4.746 0L1.35 2.242.265 3.327 7.94 11 .265 18.674l1.085 1.084 7.673-7.673 1.52 1.519A4.857 4.857 0 0 0 14 15.036a4.857 4.857 0 0 0 3.457-1.432l1.52-1.519 7.673 7.673 1.085-1.084L20.06 11l7.674-7.673" id="Fill-3"/><path d="M25.53 22H2.47C1.109 22 0 20.861 0 19.462V2.538C0 1.138 1.108 0 2.47 0h23.06C26.891 0 28 1.139 28 2.538v16.924c0 1.4-1.108 2.538-2.47 2.538zM2.47 1.692a.836.836 0 0 0-.823.846v16.924c0 .466.37.846.824.846h23.058c.454 0 .824-.38.824-.846V2.538a.836.836 0 0 0-.824-.846H2.471z" id="Fill-4"/></g></g></g></symbol><symbol id="exclamation" viewBox="0 0 36 36"><g id="sprites"><g id="exclamation"><g id="info" transform="translate(3 3)"><path d="M15 29.938C6.763 29.938.062 23.237.062 15 .062 6.763 6.763.062 15 .062 23.237.062 29.938 6.763 29.938 15c0 8.237-6.701 14.938-14.938 14.938zm0-28.235C7.668 1.703 1.703 7.668 1.703 15c0 7.332 5.965 13.297 13.297 13.297 7.332 0 13.297-5.965 13.297-13.297 0-7.332-5.965-13.297-13.297-13.297z" id="Fill-49"/><path d="M14.123 21.176h1.76v1.765h-1.76v-1.765z" id="Fill-50"/><path d="M15.53 19.412h-1.06l-.352-7.06V7.06h1.764v5.294l-.353 7.059" id="Fill-51"/></g></g></g></symbol><symbol id="guest" viewBox="0 0 36 36"><g id="sprites"><g transform="translate(3 3)" id="guest"><path d="M15.055 29.938C6.819 29.938.117 23.237.117 15 .117 6.763 6.82.062 15.055.062S29.993 6.763 29.993 15c0 8.237-6.702 14.938-14.938 14.938zm0-28.235C7.723 1.703 1.758 7.668 1.758 15c0 7.332 5.965 13.297 13.297 13.297 7.332 0 13.298-5.965 13.298-13.297 0-7.332-5.966-13.297-13.298-13.297z" id="Fill-57"/><path d="M6.344 25.807l-1.503-.66c.457-1.034 1.804-1.638 3.366-2.34 1.506-.675 3.38-1.516 3.38-2.513v-1.357c-.533-.447-1.437-1.41-1.58-2.855-.432-.408-1.15-1.24-1.15-2.268 0-.625.248-1.128.465-1.449-.132-.67-.381-2.071-.381-3.1 0-3.447 2.4-5.674 6.114-5.674 1.066 0 2.36.286 3.08 1.058 1.684.297 3.034 2.29 3.034 4.616 0 1.492-.262 2.72-.42 3.326.176.298.366.739.366 1.25 0 1.157-.584 1.905-1.13 2.305-.154 1.426-.967 2.345-1.463 2.781v1.367c0 .848 1.537 1.418 3.024 1.97 1.69.626 3.44 1.275 3.982 2.692l-1.534.586c-.275-.723-1.733-1.263-3.019-1.74-1.918-.712-4.093-1.518-4.093-3.508v-2.218l.383-.241a2.69 2.69 0 0 0 1.106-2.173v-.555l.515-.207c.086-.04.588-.303.588-1.059 0-.23-.177-.49-.239-.562l-.299-.35.138-.448c.004-.014.455-1.401.455-3.216 0-1.549-.888-3.013-1.827-3.013h-.471l-.238-.406c-.174-.298-.911-.614-1.938-.614-2.8 0-4.474 1.507-4.474 4.033 0 1.193.418 3.114.423 3.133l.097.445-.325.317s-.278.294-.278.654c0 .455.546 1.02.81 1.223l.319.246.002.406c0 1.352 1.167 2.114 1.217 2.146l.378.242.004 2.217c0 2.06-2.31 3.097-4.35 4.011-.985.441-2.333 1.047-2.534 1.502" id="Fill-58"/></g></g></symbol><symbol id="info-outline" viewBox="0 0 36 36"><g id="info-outline"><path d="M18 32.938C9.763 32.938 3.062 26.237 3.062 18 3.062 9.763 9.763 3.062 18 3.062c8.237 0 14.938 6.701 14.938 14.938 0 8.237-6.701 14.938-14.938 14.938zm0-28.235C10.668 4.703 4.703 10.668 4.703 18c0 7.332 5.965 13.297 13.297 13.297 7.332 0 13.297-5.965 13.297-13.297 0-7.332-5.965-13.297-13.297-13.297z" id="Fill-47"/><path d="M18 26c-.365 0-.666-.114-.902-.341-.237-.228-.355-.554-.355-.98v-8.495c0-.425.118-.748.355-.968.236-.22.537-.33.902-.33s.669.11.912.33c.243.22.365.543.365.968v8.496c0 .425-.122.751-.365.979-.243.227-.547.341-.912.341zm0-13.073c-.46 0-.824-.136-1.095-.407-.27-.271-.405-.627-.405-1.067 0-.44.135-.793.405-1.057.27-.264.636-.396 1.095-.396.446 0 .807.132 1.084.396s.416.616.416 1.057c0 .44-.135.796-.405 1.067-.27.271-.636.407-1.095.407z" id="i"/></g></symbol><symbol id="next" viewBox="0 0 36 36"><g id="next"><g id="noun-next-1578391" transform="translate(8 8)"><path d="M11.854 20.464a1.814 1.814 0 0 1-2.575 0c-.733-.737-.733-1.899 0-2.614l5.483-5.518H1.82C.821 12.332 0 11.505 0 10.5a1.82 1.82 0 0 1 1.82-1.832h12.942l-5.483-5.54a1.803 1.803 0 0 1 0-2.592 1.814 1.814 0 0 1 2.575 0l8.59 8.646c.067.067.134.134.178.223l.067.067v.023l.022.022c.022.023.022.067.045.09l.022.022v.022l.022.023v.022c.133.246.2.514.2.804 0 .29-.067.559-.2.804v.023l-.022.022-.022.045c-.023.022-.023.045-.045.067l-.044.09-.045.044c-.044.067-.11.134-.177.201l-8.591 8.668z" id="Path"/></g></g></symbol><symbol id="notify" viewBox="0 0 36 36"><g id="sprites"><g id="notify"><g id="Group" transform="translate(3 4)"><path d="M30 24.439c-5.711 0-6.464-5.248-7.193-10.323C22.02 8.625 21.274 3.44 15 3.44c-6.274 0-7.02 5.186-7.807 10.677C6.464 19.191 5.71 24.44 0 24.44V22.81c3.999 0 4.77-3.371 5.569-8.924C6.34 8.507 7.3 1.811 15 1.811c7.699 0 8.66 6.696 9.431 12.076.798 5.553 1.57 8.924 5.569 8.924v1.628" id="Fill-114"/><path d="M15 27.939c-2.398 0-4.35-1.936-4.35-4.314h1.641c0 1.481 1.215 2.686 2.709 2.686s2.709-1.205 2.709-2.686h1.641c0 2.378-1.952 4.314-4.35 4.314" id="Fill-115"/><path d="M0 22.75h30v1.75H0v-1.75z" id="Fill-116"/><path d="M16.765 1.75c0 .967-.79 1.313-1.765 1.313-.975 0-1.765-.346-1.765-1.313S14.025 0 15 0c.975 0 1.765.783 1.765 1.75" id="Fill-117"/></g></g></g></symbol><symbol id="pay" viewBox="0 0 36 36"><g id="sprites"><g id="pay"><g id="Group" transform="translate(4 7)"><path d="M25.53 22H2.47C1.109 22 0 20.861 0 19.462V2.538C0 1.138 1.108 0 2.47 0h23.06C26.891 0 28 1.139 28 2.538v16.924c0 1.4-1.108 2.538-2.47 2.538zM2.47 1.692a.835.835 0 0 0-.823.846v16.924c0 .467.369.846.824.846h23.058c.455 0 .824-.38.824-.846V2.538a.835.835 0 0 0-.824-.846H2.471z" id="Fill-7"/><path d="M1.263 3.324h25.474V8H1.263V3.324z" id="Fill-8"/><path d="M3.651 11.853h.796v1.706h-.796v-1.706z" id="Fill-9"/><path d="M5.243 11.853h.796v1.706h-.796v-1.706z" id="Fill-10"/><path d="M6.835 11.853h.796v1.706h-.796v-1.706z" id="Fill-11"/><path d="M9.224 11.853h.796v1.706h-.796v-1.706z" id="Fill-12"/><path d="M10.816 11.853h.796v1.706h-.796v-1.706z" id="Fill-13"/><path d="M12.408 11.853h.796v1.706h-.796v-1.706z" id="Fill-14"/><path d="M14.796 11.853h.796v1.706h-.796v-1.706z" id="Fill-15"/><path d="M16.388 11.853h.796v1.706h-.796v-1.706z" id="Fill-16"/><path d="M17.98 11.853h.796v1.706h-.796v-1.706z" id="Fill-17"/><path d="M20.369 11.853h.796v1.706h-.796v-1.706z" id="Fill-18"/><path d="M21.96 11.853h.797v1.706h-.796v-1.706z" id="Fill-19"/><path d="M23.553 11.853h.796v1.706h-.796v-1.706z" id="Fill-20"/></g></g></g></symbol><symbol id="phone" viewBox="0 0 36 36"><g id="sprites"><path d="M20.345 26c-5.024 0-10.722-5.145-12.938-7.357C4.982 16.223-.588 10.033.051 4.82.29 2.86 1.38 1.285 3.288.139A.997.997 0 0 1 3.81 0c1.5 0 4.46 3.503 5.658 5.2 1.713 2.425 1.47 3.11 1.379 3.367-.29.818-.83 1.295-1.307 1.716-.417.368-.777.686-.96 1.203-.026.126.14.804 1.228 2.141 1.71 2.1 3.962 3.792 4.687 3.792.535-.183.853-.543 1.221-.96.421-.476.898-1.016 1.717-1.307a1.13 1.13 0 0 1 .379-.061c1.725 0 6.717 4.093 7.888 6.161.124.22.502.887.16 1.459C24.552 24.894 22.696 26 20.345 26zM3.853 1.245C2.313 2.19 1.47 3.41 1.28 4.97.883 8.212 3.5 12.996 8.28 17.767c2.108 2.103 7.502 6.995 12.064 6.995 1.888 0 3.331-.856 4.41-2.617-.203-1.224-5.637-5.796-6.935-5.816-.5.186-.814.54-1.175.95-.422.477-.899 1.017-1.718 1.307-.132.047-.278.071-.432.071-1.64 0-4.77-2.95-6.204-4.98-.807-1.143-1.094-1.995-.878-2.605.29-.819.83-1.296 1.307-1.717.41-.362.765-.676.95-1.177.008-.446-1.002-2.235-2.887-4.372-1.548-1.756-2.587-2.484-2.93-2.561z" transform="translate(5 3)" id="phone"/></g></symbol><symbol id="prev" viewBox="0 0 36 36"><g id="prev"><g id="noun-next-1578391-copy" transform="matrix(-1 0 0 1 28 8)"><path d="M11.854 20.464a1.814 1.814 0 0 1-2.575 0c-.733-.737-.733-1.899 0-2.614l5.483-5.518H1.82C.821 12.332 0 11.505 0 10.5a1.82 1.82 0 0 1 1.82-1.832h12.942l-5.483-5.54a1.803 1.803 0 0 1 0-2.592 1.814 1.814 0 0 1 2.575 0l8.59 8.646c.067.067.134.134.178.223l.067.067v.023l.022.022c.022.023.022.067.045.09l.022.022v.022l.022.023v.022c.133.246.2.514.2.804 0 .29-.067.559-.2.804v.023l-.022.022-.022.045c-.023.022-.023.045-.045.067l-.044.09-.045.044c-.044.067-.11.134-.177.201l-8.591 8.668z" id="Path"/></g></g></symbol><symbol id="promo" viewBox="0 0 36 36"><g id="sprites"><g transform="translate(3 5)" id="promo"><path d="M12.133 26.149a2.97 2.97 0 0 1-2.112-.87l-8.295-8.276a2.978 2.978 0 0 1 0-4.213L12.82 1.72C13.79.756 15.618 0 16.987 0h7.093a2.986 2.986 0 0 1 2.987 2.98v7.075c0 1.365-.758 3.19-1.726 4.155L14.245 25.28a2.97 2.97 0 0 1-2.112.87zm4.854-24.287c-.888 0-2.218.55-2.846 1.176L3.045 14.106a1.117 1.117 0 0 0 0 1.581l8.296 8.275c.42.418 1.164.418 1.585 0L24.02 12.894c.628-.627 1.179-1.953 1.179-2.839V2.98a1.12 1.12 0 0 0-1.12-1.117h-7.093z" id="Fill-129"/><path d="M19.6 11.107a3.668 3.668 0 0 1-3.668-3.659A3.668 3.668 0 0 1 19.6 3.79a3.668 3.668 0 0 1 3.668 3.66 3.668 3.668 0 0 1-3.668 3.658zm0-5.586a1.931 1.931 0 0 0-1.932 1.927c0 1.064.866 1.928 1.932 1.928a1.931 1.931 0 0 0 1.932-1.928A1.931 1.931 0 0 0 19.6 5.521z" id="Fill-130"/></g></g></symbol><symbol id="question" viewBox="0 0 36 36"><g id="sprites"><g id="question"><g id="Group-2" transform="translate(3 3)"><path d="M15 29.938C6.763 29.938.062 23.237.062 15 .062 6.763 6.763.062 15 .062 23.237.062 29.938 6.763 29.938 15c0 8.237-6.701 14.938-14.938 14.938zm0-28.235C7.668 1.703 1.703 7.668 1.703 15c0 7.332 5.965 13.297 13.297 13.297 7.332 0 13.297-5.965 13.297-13.297 0-7.332-5.965-13.297-13.297-13.297z" id="Fill-47"/><path d="M10.406 10.277a4.52 4.52 0 0 1 1.021-1.698c.451-.467.998-.83 1.64-1.09.643-.26 1.377-.39 2.203-.39.642 0 1.242.096 1.8.287.56.192 1.053.47 1.48.838.429.367.766.81 1.01 1.33s.367 1.117.367 1.79c0 .856-.187 1.582-.562 2.179a8.953 8.953 0 0 1-1.434 1.72c-.474.474-.853.846-1.135 1.113a3.156 3.156 0 0 0-.631.792 2.74 2.74 0 0 0-.276.952c-.045.375-.076.609-.091 1.312h-1.446c-.015-.703.023-.987.115-1.461.092-.474.24-.903.447-1.285.207-.382.482-.75.826-1.101.344-.352.76-.75 1.25-1.193.429-.397.784-.841 1.067-1.33a3.191 3.191 0 0 0 .425-1.63 2.99 2.99 0 0 0-.264-1.261 2.943 2.943 0 0 0-.711-.975 3.349 3.349 0 0 0-1.044-.631 3.494 3.494 0 0 0-1.262-.23c-.611 0-1.155.108-1.629.321a3.16 3.16 0 0 0-1.17.884 3.798 3.798 0 0 0-.688 1.319 4.347 4.347 0 0 0-.206 1.514h-1.446c0-.81.115-1.41.344-2.076zm3.717 10.9h1.76v1.764h-1.76v-1.765z" id="Fill-48"/></g></g></g></symbol><symbol id="region" viewBox="0 0 36 36"><g id="sprites"><g id="region"><path d="M18 3.5a14.351 14.351 0 0 1 4.28.643 14.46 14.46 0 0 1 3.341 1.51 14.476 14.476 0 0 1 2.817 2.28 14.45 14.45 0 0 1 2.173 2.9A14.696 14.696 0 0 1 32 14.235a14.2 14.2 0 0 1 .5 3.764c0 1.285-.167 2.54-.5 3.764a14.544 14.544 0 0 1-1.39 3.404 14.584 14.584 0 0 1-2.173 2.899 14.372 14.372 0 0 1-2.817 2.28 14.528 14.528 0 0 1-3.342 1.51A14.326 14.326 0 0 1 18 32.5a14.351 14.351 0 0 1-4.28-.643 14.46 14.46 0 0 1-3.341-1.51 14.476 14.476 0 0 1-2.817-2.28 14.45 14.45 0 0 1-2.173-2.9A14.696 14.696 0 0 1 4 21.765a14.2 14.2 0 0 1-.5-3.764c0-1.285.167-2.54.5-3.764a14.544 14.544 0 0 1 1.39-3.404 14.584 14.584 0 0 1 2.173-2.899 14.372 14.372 0 0 1 2.817-2.28 14.528 14.528 0 0 1 3.342-1.51A14.326 14.326 0 0 1 18 3.5zm-6.54 15.82H6.208c.274 2.45 1.218 4.603 2.832 6.457 1.613 1.853 3.598 3.09 5.953 3.708-.893-1.353-1.67-2.885-2.333-4.598-.663-1.713-1.063-3.569-1.2-5.567zm10.443 0h-7.806c.068.878.21 1.757.427 2.636.216.88.458 1.657.726 2.334.268.676.577 1.344.927 2.003.35.66.666 1.202.948 1.627.282.426.574.834.875 1.226.302-.39.594-.801.875-1.231.282-.43.598-.974.948-1.632.35-.658.66-1.326.927-2.004.267-.678.51-1.454.726-2.328.217-.875.36-1.752.427-2.631zm-6.91-12.802c-2.355.617-4.34 1.853-5.953 3.707-1.614 1.853-2.558 4.006-2.832 6.457h5.252c.24-3.584 1.418-6.973 3.533-10.166v.002zm14.8 12.802h-5.244c-.254 3.59-1.435 6.98-3.543 10.165 2.355-.618 4.34-1.854 5.953-3.708 1.614-1.855 2.558-4.007 2.832-6.457h.001zM18 6.858c-.302.39-.592.801-.87 1.231-.278.43-.594.974-.948 1.632a18.718 18.718 0 0 0-.932 2.004 18.59 18.59 0 0 0-.726 2.328c-.217.874-.36 1.752-.427 2.631h7.806a16.343 16.343 0 0 0-.427-2.636 18.132 18.132 0 0 0-.726-2.334 19.934 19.934 0 0 0-.927-2.003c-.35-.66-.666-1.202-.948-1.627A21.531 21.531 0 0 0 18 6.858zm3.007-.34c2.108 3.185 3.289 6.574 3.544 10.165h5.243c-.275-2.451-1.219-4.603-2.832-6.457-1.614-1.854-3.598-3.09-5.954-3.708h-.001z" id="Shape"/></g></g></symbol><symbol id="request" viewBox="0 0 36 36"><g id="sprites"><g id="request"><path d="M5.765 25.935h-1.49l.877-1.188c.664-.898 1.098-2.043 1.32-3.488C2.335 19.434.066 15.945.066 11.375.066 4.399 5.406.065 14 .065s13.934 4.334 13.934 11.31c0 7.082-5.209 11.31-13.934 11.31-.194 0-.386-.005-.577-.012-1.309 1.556-3.657 3.262-7.658 3.262zM14 1.56c-7.776 0-12.419 3.67-12.419 9.815 0 5.272 3.261 7.653 5.997 8.721l.538.21-.064.569c-.152 1.347-.455 2.499-.921 3.484 2.797-.344 4.428-1.72 5.333-2.9l.239-.31.508.02c.261.01.523.021.789.021 11.208 0 12.419-6.864 12.419-9.815 0-6.146-4.643-9.815-12.419-9.815z" transform="translate(4 4)" id="Fill-59"/></g></g></symbol><symbol id="retry" viewBox="0 0 36 36"><g id="sprites"><g transform="translate(6 6)" id="retry"><path d="M12 23.935a11.972 11.972 0 0 1-10.853-6.962l1.56-.716A10.253 10.253 0 0 0 12 22.218c5.634 0 10.218-4.584 10.218-10.218S17.634 1.782 12 1.782c-4.278 0-7.86 2.61-9.344 6.81l-1.62-.571C2.747 3.187 7.05.065 12 .065 18.58.065 23.935 5.419 23.935 12c0 6.58-5.354 11.935-11.935 11.935" id="Fill-83"/><path d="M7.385 9.23H0V1.847h1.846v5.539h5.539V9.23" id="Fill-84"/></g></g></symbol><symbol id="share" viewBox="0 0 36 36"><g id="sprites"><g transform="translate(7)" id="share"><path d="M15.521 7.174L11 2.747 6.479 7.174l-1.112-1.09L11 .567l5.633 5.515-1.112 1.09" id="Fill-74"/><path d="M10.154 1.657h1.692v17.4h-1.692v-17.4z" id="Fill-75"/><path d="M19.462 29H2.538C1.138 29 0 27.885 0 26.514V11.6c0-1.37 1.139-2.486 2.538-2.486h5.924v1.657H2.538a.838.838 0 0 0-.846.829v14.914c0 .457.38.829.846.829h16.924a.838.838 0 0 0 .846-.829V11.6a.838.838 0 0 0-.846-.829h-5.924V9.114h5.924c1.4 0 2.538 1.116 2.538 2.486v14.914C22 27.884 20.861 29 19.462 29" id="Fill-76"/></g></g></symbol><symbol id="special_occasion" viewBox="0 0 36 36"><g id="special_occasion"><path d="M18.188 8.182l-2.395 10.9a4.477 4.477 0 0 1-4.377 3.52 4.476 4.476 0 0 1-.858-.096l-2.23 7.55 3.524 1.049c.355.107.557.48.452.837a.662.662 0 0 1-.648.477.623.623 0 0 1-.21-.004l-8.326-2.47A.674.674 0 1 1 3.5 28.65l3.518 1.049 2.247-7.584a4.476 4.476 0 0 1-2.537-5.72L10.65 5.942a.674.674 0 0 1 .822-.411l6.251 1.852a.674.674 0 0 1 .466.8zM9.945 11.62l-1.956 5.275a3.127 3.127 0 0 0 2.043 4.097l.505.147a3.127 3.127 0 0 0 3.94-2.356L16.76 8.495 11.693 7l-1.226 3.271h4.818a.674.674 0 1 1 0 1.349h-5.34zM32.526 26.877a.674.674 0 0 1 .81.506l-.002-.002a.676.676 0 0 1-.466.811l-8.47 2.007a.516.516 0 0 1-.138 0 .674.674 0 0 1-.175-1.328l3.571-.85-1.826-7.693a4.71 4.71 0 0 1-.617.052 4.476 4.476 0 0 1-4.426-3.754L18.99 5.606a.674.674 0 0 1 .513-.762l6.343-1.494a.675.675 0 0 1 .796.453l3.346 10.672a4.476 4.476 0 0 1-2.843 5.558l1.816 7.694 3.566-.85zM22.122 16.432a3.084 3.084 0 0 0 1.349 2.084c.72.488 1.611.649 2.456.443l.51-.12a3.127 3.127 0 0 0 2.262-3.982l-1.698-5.41h-4.656a.674.674 0 0 1 0-1.348h4.231l-1.034-3.292-5.117 1.214 1.697 10.41z" id="Shape"/><circle id="Oval" cx="13.655" cy="14.747" r="1"/><circle id="Oval" cx="10.397" cy="16.377" r="1"/><circle id="Oval" cx="12.569" cy="19.092" r="1"/><circle id="Oval" cx="26.147" cy="12.032" r="1"/><circle id="Oval" cx="22.888" cy="13.661" r="1"/><circle id="Oval" cx="25.061" cy="16.377" r="1"/></g></symbol><symbol id="time" viewBox="0 0 36 36"><g id="sprites"><g transform="translate(3 3)" id="time"><path d="M15 29.938C6.763 29.938.062 23.237.062 15 .062 6.763 6.763.062 15 .062 23.237.062 29.938 6.763 29.938 15c0 8.237-6.701 14.938-14.938 14.938zm0-28.235C7.668 1.703 1.703 7.668 1.703 15c0 7.332 5.965 13.297 13.297 13.297 7.332 0 13.297-5.965 13.297-13.297 0-7.332-5.965-13.297-13.297-13.297z" id="Fill-131"/><path d="M19.67 22.683l-5.552-5.553V7.059h1.764v9.34l5.036 5.036-1.248 1.248" id="Fill-132"/></g></g></symbol><symbol id="vcard" viewBox="0 0 36 36"><g id="sprites"><g id="vcard"><path d="M29.53 29H6.47C5.109 29 4 27.861 4 26.462V9.538C4 8.138 5.108 7 6.47 7h23.06C30.891 7 32 8.139 32 9.538v16.924c0 1.4-1.108 2.538-2.47 2.538zM6.47 8.692a.836.836 0 0 0-.823.846v16.924c0 .466.37.846.824.846h23.058c.454 0 .824-.38.824-.846V9.538a.836.836 0 0 0-.824-.846H6.471z" id="Fill-4"/><path d="M8 12l1-1v8l-1-1h8l-1 1v-8l1 1H8zm0-1h8v8H8v-8z" id="Shape"/><path id="Rectangle-2" d="M19 13h9v1h-9z"/><path id="Rectangle-2-Copy" d="M19 16h9v1h-9z"/><path id="Rectangle-2-Copy-2" d="M8 21h20v1H8z"/><path id="Rectangle-2-Copy-3" d="M8 24h20v1H8z"/></g></g></symbol><symbol id="whatsapp" viewBox="0 0 36 36"><g id="sprites"><g id="whatsapp"><path d="M18.912 16.406c.156 0 .742.265 1.757.794 1.016.529 1.553.848 1.613.955.024.06.036.15.036.27 0 .397-.102.854-.307 1.371-.192.468-.619.862-1.28 1.18-.66.319-1.273.478-1.839.478-.685 0-1.827-.373-3.425-1.118-1.178-.54-2.2-1.25-3.065-2.128-.865-.877-1.755-1.99-2.668-3.335-.865-1.287-1.292-2.452-1.28-3.498v-.144c.037-1.094.482-2.043 1.335-2.849.288-.264.6-.397.937-.397.072 0 .18.009.324.027.144.017.258.026.342.026.229 0 .388.04.478.118.09.078.183.244.28.496.096.24.294.77.595 1.587.3.817.451 1.267.451 1.352 0 .252-.207.598-.622 1.036-.415.439-.622.718-.622.839 0 .084.03.174.09.27.409.878 1.022 1.701 1.84 2.47.672.637 1.58 1.244 2.721 1.821a.8.8 0 0 0 .397.126c.18 0 .505-.292.974-.875.47-.583.782-.874.937-.874l.001.002zm-3.66 9.555c1.526 0 2.99-.3 4.39-.901 1.401-.601 2.606-1.406 3.615-2.416 1.01-1.01 1.815-2.215 2.417-3.615.601-1.4.902-2.864.9-4.39 0-1.528-.3-2.991-.9-4.391-.6-1.4-1.406-2.605-2.417-3.615-1.01-1.01-2.215-1.816-3.615-2.416-1.399-.601-2.862-.901-4.39-.901-1.528 0-2.991.3-4.39.9-1.4.601-2.605 1.407-3.615 2.417-1.011 1.01-1.816 2.215-2.416 3.615-.6 1.4-.9 2.863-.902 4.39 0 2.44.722 4.652 2.164 6.635l-1.424 4.201 4.363-1.388c1.899 1.25 3.972 1.875 6.22 1.875zm0-24.916c1.84 0 3.597.36 5.273 1.082 1.676.722 3.122 1.69 4.336 2.903 1.215 1.214 2.183 2.66 2.903 4.336a13.23 13.23 0 0 1 1.083 5.273c0 1.839-.36 3.597-1.083 5.274-.722 1.676-1.69 3.122-2.903 4.336-1.213 1.213-2.658 2.181-4.336 2.903a13.21 13.21 0 0 1-5.273 1.082c-2.344 0-4.537-.565-6.58-1.695l-7.519 2.416 2.452-7.301c-1.298-2.14-1.946-4.477-1.946-7.013 0-1.84.36-3.597 1.082-5.274.721-1.676 1.69-3.121 2.903-4.336C6.858 3.817 8.304 2.85 9.98 2.128a13.23 13.23 0 0 1 5.273-1.082v-.001z" transform="translate(3 3)" id="Shape"/></g></g></symbol></svg>